<?xml version="1.0"?>
<svg xmlns="http://www.w3.org/2000/svg" xmlns:xlink="http://www.w3.org/1999/xlink" version="1.1" id="Capa_1" x="0px" y="0px" viewBox="0 0 511.999 511.999" style="enable-background:new 0 0 511.999 511.999;" xml:space="preserve" width="512px" height="512px" class=""><g><g>
	<g>
		<g>
			<path d="M199.646,192.716c-10.768,2.242-31.345,11.215-39.435,16.535c-3.461,2.275-4.422,6.926-2.146,10.387     c1.44,2.192,3.833,3.381,6.273,3.381c1.414,0,2.844-0.399,4.113-1.234c6.668-4.383,25.508-12.562,34.251-14.382     c4.056-0.844,6.658-4.816,5.814-8.872C207.672,194.475,203.695,191.878,199.646,192.716z" data-original="#000000" class="active-path" data-old_color="#000000" fill="#00F2FF"/>
			<path d="M452.168,249.232c7.387-14.18,11.64-30.154,12.592-47.678c1.037-19.088-1.841-37.873-8.349-55.717     c22.391-29.821,30.157-67.53,21.285-104.178c-2.801-11.572-12.19-20.362-23.922-22.395c-35.701-6.185-71.688,3.131-99.506,25.58     c-23.592-9.902-49.472-15.846-76.421-17.31c-26.954-1.464-53.325,1.64-77.848,8.929C174.774,11.132,139.998-2.021,103.85,0.253     c-11.882,0.749-22.169,8.47-26.209,19.671c-12.79,35.47-9.156,73.798,9.873,105.87c-8.403,17.034-13.3,35.396-14.338,54.484     c-1.479,27.213,5.197,51.432,19.843,71.981c2.402,3.374,7.087,4.16,10.46,1.755c3.373-2.404,4.159-7.087,1.755-10.461     c-12.623-17.713-18.369-38.729-17.079-62.463c4.446-81.83,89.193-143.998,188.878-138.58c26.486,1.439,51.832,7.483,74.71,17.571     c0.464,0.268,0.951,0.482,1.454,0.643c14.49,6.528,27.968,14.689,40.088,24.35c0.13,0.109,0.261,0.217,0.397,0.316     c3.211,2.574,6.327,5.252,9.339,8.035c17.083,15.781,29.773,33.88,37.624,53.254c0.134,0.476,0.315,0.941,0.544,1.386     c6.605,16.844,9.576,34.626,8.594,52.675c-1.047,19.277-6.446,36.127-16.109,50.456c-0.189,0.245-0.368,0.497-0.525,0.764     c-9.351,13.565-22.567,24.843-39.614,33.73c-5.049,2.632-10.405,5.035-16.046,7.206c-0.025,0.009-0.05,0.014-0.075,0.023     c-0.046,0.017-0.089,0.04-0.135,0.058c-30.711,11.774-69.898,16.687-114.63,14.257c-50.495-2.743-92.56-13.891-122.799-32.41     c-0.191-0.134-0.389-0.262-0.596-0.379c-0.015-0.008-0.03-0.014-0.046-0.023c-3.972-2.46-7.746-5.043-11.296-7.758     c-3.29-2.517-7.997-1.888-10.514,1.402c-2.516,3.29-1.889,7.997,1.402,10.513c2.351,1.797,4.794,3.537,7.309,5.231     c-1.774,5.253-2.401,10.854-1.802,16.175c-1.342,1.318-2.582,2.759-3.691,4.326c-5.11,7.217-8.992,14.506-11.631,21.791     c-33.187,34.531-60.91,73.238-76.181,106.411c-4.887,10.619-0.943,22.982,9.174,28.757c2.329,1.329,4.899,2.619,7.645,3.854     c0.973,1.235,2.071,2.384,3.308,3.414c4.036,3.36,9.147,5.21,14.393,5.21c1.927,0,3.819-0.252,5.642-0.721     c13.054,3.315,28.397,5.784,45.744,7.357c0.032,4.853,1.178,9.768,3.58,14.356c5.458,10.428,16.165,16.906,27.942,16.906     c5.051,0,10.098-1.244,14.594-3.598c15.634-8.183,28.139-17.237,38.635-26.661c10.853-0.596,21.639-1.447,31.792-2.516     c-0.394,7.625,1.953,15.412,7.202,21.738c6.008,7.239,14.853,11.392,24.267,11.392c6.794,0,13.268-2.135,18.724-6.174     c3.329-2.465,4.029-7.162,1.564-10.491c-2.465-3.33-7.163-4.029-10.49-1.565c-2.853,2.113-6.241,3.229-9.798,3.229     c-4.938,0-9.575-2.176-12.723-5.97c-5.815-7.008-4.845-17.441,2.163-23.257c5.241-4.348,9.399-9.409,12.444-15.065     c13.578-2.08,26.449-6.376,38.122-12.517c-1.142,8.831-3.89,19.123-9.758,29.567c-2.028,3.611-0.746,8.184,2.865,10.212     c1.162,0.653,2.423,0.963,3.667,0.963c2.623,0,5.169-1.378,6.546-3.828c9.799-17.442,12.256-34.491,12.372-46.819     c22.12-16.571,37.76-40.703,42.147-68.946c32.646-12.837,74.336-38.463,98.167-56.953c13.728-10.653,16.231-30.489,5.58-44.219     C464.152,254.811,458.463,251.055,452.168,249.232z M137.346,67.42c-16.835,12.462-30.642,27.019-41.099,43.068     c-14.353-29.02-12.056-56.502-7.962-73.751c15.599,4.338,35.13,12.572,52.53,28.18C139.649,65.739,138.491,66.572,137.346,67.42z      M153.817,56.514c-19.964-19.042-42.745-28.922-60.856-34.043c2.476-4.173,6.871-6.935,11.833-7.248     c29.305-1.846,57.54,7.805,79.137,26.717C173.434,45.996,163.361,50.866,153.817,56.514z M398.004,69.782     c-8.875-6.648-18.362-12.581-28.357-17.751c23.523-16.461,52.647-22.996,81.565-17.985c4.9,0.848,8.97,4.071,10.978,8.488     C443.631,45.662,419.914,53.015,398.004,69.782z M449.387,129.677c-8.656-17.088-20.804-33.055-36.19-47.268     c-1.047-0.967-2.107-1.921-3.176-2.865c18.988-13.63,39.296-19.699,55.273-22.322     C467.494,74.814,466.799,102.384,449.387,129.677z M120.271,342.427c1.302-9.583,5.536-19.491,12.588-29.449     c2.548-3.6,6.346-5.992,10.693-6.735c0.94-0.161,1.882-0.24,2.817-0.24c3.389,0,6.688,1.043,9.511,3.042     c3.601,2.549,5.992,6.348,6.735,10.696c0.743,4.349-0.252,8.726-2.801,12.327c-5.527,7.807-7.929,14.847-6.586,19.315     c0.211,0.705,0.525,1.374,0.932,1.987c2.486,3.752,8.884,5.992,15.235,5.32c4.388-0.467,8.694,0.801,12.126,3.573     c3.431,2.771,5.576,6.714,6.043,11.103c0.467,4.387-0.802,8.692-3.574,12.124c-2.771,3.432-6.714,5.579-11.101,6.045     c-1.965,0.209-3.953,0.315-5.91,0.315c-17.61,0-33.536-8.503-41.562-22.191C120.718,361.646,118.939,352.229,120.271,342.427z      M59.271,426.596c-3.051,3.116-6.131,6.506-9.24,10.242c-1.776,2.133-3.097,4.535-3.975,7.083     c-0.475-1.653-0.389-3.476,0.374-5.135c12.283-26.682,33.133-57.253,58.537-86.154c0.578,8.756,3.11,17.109,7.511,24.616     c3.001,5.118,6.802,9.691,11.222,13.625c-18.246,4.799-40.206,11.148-64.07,35.356C59.506,426.345,59.388,426.469,59.271,426.596     z M73.103,456.042c-0.768,0.923-1.734,1.626-2.808,2.088c-0.189,0.065-0.374,0.142-0.557,0.222     c-0.768,0.26-1.582,0.397-2.416,0.397c-1.235,0-3.069-0.302-4.796-1.739c-0.667-0.555-1.215-1.212-1.646-1.935     c-0.011-0.018-0.021-0.037-0.033-0.055c-0.547-0.936-0.894-1.985-0.996-3.097c-0.183-1.998,0.423-3.947,1.707-5.489     c1.607-1.931,3.199-3.76,4.777-5.498c4.117,2.534,8.07,6.05,11.23,9.983C76.094,452.534,74.608,454.234,73.103,456.042z      M77.244,430.15c18.777-16.512,35.644-20.94,52.072-25.244c3.998-1.047,7.818-2.057,11.64-3.233     c3.039,1.274,6.199,2.329,9.455,3.145c1.846,2.531,3.792,4.979,5.83,7.342c-7.946,3.295-15.625,5.312-23.118,7.275     c-14.813,3.881-29.001,7.609-44.75,20.979C85.106,436.523,81.317,433.031,77.244,430.15z M122.245,465.634     c-12.347-1.054-23.617-2.56-33.693-4.505c17.276-19.028,31.14-22.669,48.372-27.184c9.268-2.428,19.615-5.14,30.595-10.393     c0.865,0.761,1.743,1.508,2.63,2.244c-7.796,8.422-18.557,18.034-34.552,26.405C129.647,455.316,125.114,460.078,122.245,465.634     z M157.868,494.758c-2.393,1.252-4.963,1.888-7.638,1.888c-6.177,0-11.792-3.396-14.653-8.861     c-4.223-8.069-1.095-18.069,6.974-22.292c18.778-9.828,31.043-21.13,39.798-30.81c9.62,6.123,20.166,10.923,31.329,14.227     C200.309,465.069,183.64,481.269,157.868,494.758z M246.581,456.23c-2.476,2.054-4.554,4.411-6.231,6.972     c-6.676,0.791-13.712,1.485-20.933,2.07c3.752-4.226,7.243-8.468,10.561-12.686c1.277,0.201,2.558,0.388,3.846,0.551     c5.07,0.64,10.101,0.958,15.078,0.991C248.161,454.847,247.396,455.554,246.581,456.23z M350.102,356.502     c-6.585,52.206-57.904,88.874-114.4,81.753c-18.584-2.345-35.899-9.221-50.401-19.689c-0.007-0.005-0.014-0.011-0.021-0.016     c-3.947-2.851-7.686-5.968-11.184-9.334c-0.077-0.077-0.156-0.151-0.236-0.225c-0.783-0.758-1.557-1.524-2.315-2.307     c0.979-0.063,1.958-0.13,2.932-0.233c8.371-0.891,15.895-4.987,21.185-11.536c5.289-6.549,7.712-14.766,6.82-23.136     c-0.891-8.372-4.985-15.896-11.532-21.185c-5.931-4.792-13.213-7.231-20.77-6.986c0.509-0.855,1.127-1.813,1.878-2.874     c2.416-3.413,4.099-7.191,5.008-11.147c24.206,2.305,50.526,5.42,71.4,10.198c-7.273,7.463-12.11,17.139-13.593,27.575     c-0.059,0.308-0.099,0.622-0.119,0.941c-0.237,1.938-0.366,3.899-0.366,5.877c0,8.084,1.973,15.711,5.443,22.446     c0.144,0.337,0.308,0.662,0.497,0.97c2.335,4.295,5.297,8.2,8.754,11.605c-2.136,0.104-4.276-0.074-6.28-0.575     c-4.754-1.189-8.21-3.94-10.272-8.179c-1.814-3.723-6.302-5.276-10.026-3.461c-3.725,1.813-5.274,6.301-3.462,10.026     c3.98,8.176,11.126,13.917,20.123,16.166c2.8,0.7,5.727,1.039,8.674,1.039c6.171,0,12.401-1.512,17.689-4.3     c5.59,2.212,11.672,3.442,18.039,3.442c27.117,0,49.179-22.062,49.179-49.179c0-1.618-0.102-3.22-0.258-4.811     c-0.009-0.321-0.038-0.642-0.089-0.962c-1.075-9.127-4.667-17.701-10.309-24.804c9.791-1.77,20.062-2.578,28.564-3.158     C350.95,345.798,350.774,351.174,350.102,356.502z M313.346,357.433c1.462,2.599,2.593,5.382,3.335,8.291     c-21.668,11.839-49.079,18.166-65.282,20.003c-1.127-3.131-1.81-6.471-1.971-9.947     C265.237,374.052,291.184,367.984,313.346,357.433z M252.381,360.268c2.864-6.387,7.657-11.853,13.789-15.498     c4.928,1.737,9.194,3.638,12.571,5.733c1.68,1.041,3.486,1.8,5.355,2.292C272.251,356.556,260.908,359.005,252.381,360.268z      M316.706,382.541c-3.74,14.817-17.177,25.818-33.14,25.818c-8.774,0-16.783-3.326-22.842-8.779     C276.605,397.037,297.788,391.567,316.706,382.541z M352.793,325.268c-13.383,0.89-32.03,2.146-47.849,7.076     c-0.295,0.077-0.586,0.166-0.871,0.278c-4.368,1.409-8.519,3.089-12.25,5.149c-1.705,0.942-3.641,0.936-5.177-0.017     c-21.182-13.135-64.843-19.037-109.839-23.257c-0.737-2.816-1.848-5.484-3.297-7.949c25.565,8.554,55.289,13.868,88.322,15.663     c7.68,0.418,15.203,0.625,22.572,0.625c33.94-0.001,64.435-4.42,90.193-13.005c0.296,3.705-0.271,7.119-1.706,9.558     c-1.569,2.668-4.196,4.253-8.03,4.846C362.252,324.639,357.868,324.931,352.793,325.268z M453.535,292.537     c-21.617,16.773-58.341,39.354-87.742,52.064c-0.013-1.778-0.079-3.555-0.184-5.33c0.539-0.067,1.06-0.136,1.545-0.211     c10.52-1.626,15.958-7.458,18.668-12.063c3.649-6.202,4.72-14.301,3.167-22.59c3.965-1.693,7.796-3.495,11.479-5.415     c18.078-9.425,32.521-21.548,43.127-36.008c4.992,0.059,9.748,2.363,12.865,6.38     C462.041,276.559,460.729,286.954,453.535,292.537z" data-original="#000000" class="active-path" data-old_color="#000000" fill="#00F2FF"/>
			<path d="M369.988,169.683c3.955,0,7.265-3.096,7.482-7.093l0.654-12.04c0.225-4.136-2.946-7.671-7.082-7.896     c-4.112-0.228-7.672,2.945-7.896,7.082l-0.654,12.04c-0.225,4.136,2.946,7.671,7.082,7.895     C369.713,169.679,369.851,169.683,369.988,169.683z" data-original="#000000" class="active-path" data-old_color="#000000" fill="#00F2FF"/>
			<path d="M397.509,192.69c8.9-0.686,29.276,1.918,36.902,4.27c0.736,0.228,1.48,0.336,2.213,0.336     c3.204,0,6.171-2.069,7.165-5.291c1.221-3.958-0.998-8.156-4.956-9.377c-9.252-2.854-31.513-5.742-42.479-4.893     c-4.13,0.319-7.22,3.925-6.9,8.055C389.772,189.919,393.369,193.011,397.509,192.69z" data-original="#000000" class="active-path" data-old_color="#000000" fill="#00F2FF"/>
			<path d="M381.494,207.929c-1.278,3.94,0.879,8.17,4.818,9.449c8.495,2.757,26.339,12.929,32.492,18.009     c1.398,1.154,3.09,1.716,4.771,1.716c2.16,0,4.305-0.929,5.787-2.725c2.638-3.194,2.185-7.921-1.008-10.559     c-7.467-6.165-26.95-17.314-37.412-20.71C387.004,201.832,382.773,203.989,381.494,207.929z" data-original="#000000" class="active-path" data-old_color="#000000" fill="#00F2FF"/>
			<path d="M197.017,166.903c-10.81-2.03-33.253-1.574-42.76,0.261c-4.067,0.785-6.729,4.719-5.943,8.786     c0.692,3.587,3.834,6.08,7.356,6.08c0.471,0,0.949-0.045,1.429-0.137c7.837-1.512,28.371-1.895,37.148-0.247     c4.066,0.764,7.991-1.915,8.756-5.987C203.768,171.588,201.087,167.668,197.017,166.903z" data-original="#000000" class="active-path" data-old_color="#000000" fill="#00F2FF"/>
			<path d="M224.925,161.8c3.955,0,7.265-3.096,7.482-7.093l0.654-12.04c0.225-4.136-2.946-7.671-7.082-7.895     c-4.124-0.226-7.671,2.945-7.896,7.082l-0.654,12.04c-0.225,4.136,2.946,7.671,7.082,7.896     C224.649,161.797,224.787,161.8,224.925,161.8z" data-original="#000000" class="active-path" data-old_color="#000000" fill="#00F2FF"/>
			<path d="M296.542,174.976c0.596,0.033,1.189,0.049,1.783,0.049c8.859,0,17.377-3.583,23.598-9.983     c2.887-2.97,2.818-7.719-0.151-10.605c-2.973-2.888-7.72-2.818-10.607,0.151c-3.614,3.719-8.655,5.688-13.81,5.411     c-5.163-0.281-9.953-2.787-13.144-6.876c-2.548-3.267-7.262-3.848-10.526-1.3c-3.266,2.548-3.848,7.261-1.3,10.527     C278.243,169.858,287.047,174.46,296.542,174.976z" data-original="#000000" class="active-path" data-old_color="#000000" fill="#00F2FF"/>
		</g>
	</g>
</g></g> </svg>
